<?xml version="1.0" encoding="UTF-8"?>
<svg width="300px" height="41px" viewBox="0 0 300 41" version="1.1" xmlns="http://www.w3.org/2000/svg" xmlns:xlink="http://www.w3.org/1999/xlink">
    <!-- Generator: Sketch 53.2 (72643) - https://sketchapp.com -->
    <title>Axios Module</title>
    <desc>Created with Sketch.</desc>
    <g id="Page-1" stroke="none" stroke-width="1" fill="none" fill-rule="evenodd">
        <g id="Axios-Module" fill-rule="nonzero">
            <path d="M71.0594595,35.6756757 L71.0594595,13.1545946 L76.1902703,13.1545946 L76.6443243,16.9686486 C77.3404865,15.6368108 78.3394054,14.5772432 79.6410811,13.7902703 C80.9729189,13.0032973 82.5319459,12.6097297 84.3178378,12.6097297 C87.1026486,12.6097297 89.267027,13.4875135 90.8108108,15.2432432 C92.3545946,16.998973 93.1264865,19.5718378 93.1264865,22.9621622 L93.1264865,35.6756757 L87.3145946,35.6756757 L87.3145946,23.507027 C87.3145946,21.5696757 86.921027,20.0865405 86.1340541,19.0572973 C85.3470811,18.0280541 84.1211351,17.5135135 82.4562162,17.5135135 C80.8216216,17.5135135 79.4745405,18.0887027 78.4151351,19.2389189 C77.3858919,20.3891351 76.8713514,21.9935676 76.8713514,24.0518919 L76.8713514,35.6756757 L71.0594595,35.6756757 Z M107.129514,36.2205405 C104.314378,36.2205405 102.134919,35.3427568 100.591135,33.587027 C99.0775135,31.8312973 98.3208649,29.2584324 98.3208649,25.8681081 L98.3208649,13.1545946 L104.087351,13.1545946 L104.087351,25.3232432 C104.087351,27.2605946 104.480757,28.7437297 105.267892,29.772973 C106.054865,30.8022162 107.295892,31.3167568 108.991135,31.3167568 C110.595405,31.3167568 111.912162,30.7415676 112.941405,29.5913514 C114.000811,28.4411351 114.530595,26.8367027 114.530595,24.7783784 L114.530595,13.1545946 L120.342486,13.1545946 L120.342486,35.6756757 L115.211676,35.6756757 L114.757622,31.8616216 C114.061297,33.1934595 113.047297,34.253027 111.715459,35.04 C110.413784,35.826973 108.885081,36.2205405 107.129514,36.2205405 Z M124.174541,35.6756757 L132.347514,24.4151351 L124.174541,13.1545946 L130.395081,13.1545946 L136.116162,21.1459459 L141.791838,13.1545946 L148.057784,13.1545946 L139.839405,24.4151351 L148.057784,35.6756757 L141.791838,35.6756757 L136.116162,27.6843243 L130.395081,35.6756757 L124.174541,35.6756757 Z M161.795027,35.6756757 C159.433946,35.6756757 157.542162,35.1004865 156.119351,33.9502703 C154.696703,32.8000541 153.985297,30.7568108 153.985297,27.8205405 L153.985297,18.012973 L150.125838,18.012973 L150.125838,13.1545946 L153.985297,13.1545946 L154.666378,7.11567568 L159.797189,7.11567568 L159.797189,13.1545946 L165.882162,13.1545946 L165.882162,18.012973 L159.797189,18.012973 L159.797189,27.8659459 C159.797189,28.9556757 160.024216,29.7124865 160.47827,30.1362162 C160.962649,30.5297838 161.779946,30.7264865 162.930811,30.7264865 L165.745946,30.7264865 L165.745946,35.6756757 L161.795027,35.6756757 Z M168.964865,40.7156757 L180.316216,0.395675676 L185.991892,0.395675676 L174.595135,40.7156757 L168.964865,40.7156757 Z" id="Shape" fill="#003C3C"></path>
            <path d="M197.747027,36.2205405 C195.809189,36.2205405 194.22,35.9177838 192.979459,35.3124324 C191.738919,34.6767568 190.814595,33.8443784 190.20973,32.8151351 C189.604865,31.7858919 189.301622,30.6507568 189.301622,29.4097297 C189.301622,27.3210811 190.118919,25.626 191.753514,24.3243243 C193.388108,23.0226486 195.84,22.3718919 199.109189,22.3718919 L204.83027,22.3718919 L204.83027,21.827027 C204.83027,20.2832432 204.390811,19.1481081 203.513514,18.4216216 C202.636216,17.6951351 201.546486,17.3318919 200.244324,17.3318919 C199.063784,17.3318919 198.034054,17.6194054 197.156757,18.1945946 C196.279459,18.7394595 195.734595,19.5567568 195.522162,20.6464865 L189.846486,20.6464865 C189.997297,19.0118919 190.542162,17.5892432 191.481081,16.3783784 C192.449189,15.1675135 193.691351,14.2443243 195.204324,13.6086486 C196.717297,12.9426486 198.413514,12.6097297 200.28973,12.6097297 C203.498919,12.6097297 206.025405,13.4119459 207.872432,15.0162162 C209.719459,16.6204865 210.642162,18.8907568 210.642162,21.827027 L210.642162,35.6756757 L205.692973,35.6756757 L205.148108,32.0432432 C204.481622,33.2541081 203.544324,34.253027 202.332973,35.04 C201.152432,35.826973 199.623243,36.2205405 197.747027,36.2205405 Z M199.063784,31.68 C200.729189,31.68 202.015135,31.1351351 202.923243,30.0454054 C203.862162,28.9556757 204.452432,27.6085946 204.694054,26.0043243 L199.744865,26.0043243 C198.201081,26.0043243 197.096757,26.2918378 196.43027,26.867027 C195.763784,27.4118919 195.431351,28.092973 195.431351,28.9102703 C195.431351,29.7880541 195.763784,30.4691351 196.43027,30.9535135 C197.096757,31.4378919 197.974054,31.68 199.063784,31.68 Z M214.054054,35.6756757 L222.227027,24.4151351 L214.054054,13.1545946 L220.274595,13.1545946 L225.995676,21.1459459 L231.671351,13.1545946 L237.937297,13.1545946 L229.718919,24.4151351 L237.937297,35.6756757 L231.671351,35.6756757 L225.995676,27.6843243 L220.274595,35.6756757 L214.054054,35.6756757 Z M244.772432,9.65837838 C243.713514,9.65837838 242.836216,9.34054054 242.138919,8.70486486 C241.474054,8.06918919 241.14,7.26697297 241.14,6.29837838 C241.14,5.32978378 241.474054,4.5426973 242.138919,3.9372973 C242.836216,3.30162162 243.713514,2.98378378 244.772432,2.98378378 C245.832973,2.98378378 246.695676,3.30162162 247.360541,3.9372973 C248.057838,4.5426973 248.404865,5.32978378 248.404865,6.29837838 C248.404865,7.26697297 248.057838,8.06918919 247.360541,8.70486486 C246.695676,9.34054054 245.832973,9.65837838 244.772432,9.65837838 Z M241.866486,35.6756757 L241.866486,13.1545946 L247.678378,13.1545946 L247.678378,35.6756757 L241.866486,35.6756757 Z M264.551351,36.2205405 C262.371892,36.2205405 260.404865,35.7210811 258.648649,34.7221622 C256.923243,33.7232432 255.546486,32.346 254.516757,30.5902703 C253.517838,28.8043784 253.018378,26.7458919 253.018378,24.4151351 C253.018378,22.0843784 253.534054,20.0411351 254.562162,18.2854054 C255.591892,16.4995135 256.968649,15.107027 258.694054,14.1081081 C260.45027,13.1091892 262.417297,12.6097297 264.596757,12.6097297 C266.747027,12.6097297 268.683243,13.1091892 270.408649,14.1081081 C272.164865,15.107027 273.541622,16.4995135 274.540541,18.2854054 C275.57027,20.0411351 276.084324,22.0843784 276.084324,24.4151351 C276.084324,26.7458919 275.57027,28.8043784 274.540541,30.5902703 C273.541622,32.346 272.164865,33.7232432 270.408649,34.7221622 C268.654054,35.7210811 266.701622,36.2205405 264.551351,36.2205405 Z M264.551351,31.1805405 C266.065946,31.1805405 267.382703,30.6205946 268.501622,29.5005405 C269.622162,28.3503243 270.181622,26.6550811 270.181622,24.4151351 C270.181622,22.1751892 269.622162,20.4951892 268.501622,19.3751351 C267.382703,18.2249189 266.080541,17.6497297 264.596757,17.6497297 C263.052973,17.6497297 261.721622,18.2249189 260.601081,19.3751351 C259.511351,20.4951892 258.966486,22.1751892 258.966486,24.4151351 C258.966486,26.6550811 259.511351,28.3503243 260.601081,29.5005405 C261.721622,30.6205946 263.038378,31.1805405 264.551351,31.1805405 Z M290.58973,36.2205405 C288.591892,36.2205405 286.835676,35.9027027 285.322703,35.267027 C283.808108,34.601027 282.598378,33.6929189 281.69027,32.5427027 C280.782162,31.3924865 280.237297,30.0604865 280.055676,28.547027 L285.912973,28.547027 C286.094595,29.4248108 286.577838,30.1816216 287.365946,30.8172973 C288.183243,31.4226486 289.227568,31.7254054 290.498919,31.7254054 C291.77027,31.7254054 292.692973,31.4680541 293.268649,30.9535135 C293.873514,30.438973 294.176757,29.8487027 294.176757,29.1827027 C294.176757,28.2141081 293.751892,27.5631892 292.905405,27.2302703 C292.057297,26.867027 290.876757,26.5188649 289.363784,26.1859459 C288.394054,25.974 287.411351,25.7168108 286.412432,25.4140541 C285.413514,25.1112973 284.489189,24.732973 283.642703,24.2789189 C282.825405,23.7945405 282.158919,23.1891892 281.644865,22.4627027 C281.129189,21.7058919 280.872973,20.7827027 280.872973,19.692973 C280.872973,17.6951351 281.659459,16.0151351 283.234054,14.652973 C284.837838,13.2908108 287.077297,12.6097297 289.954054,12.6097297 C292.616757,12.6097297 294.736216,13.2303243 296.310811,14.4713514 C297.914595,15.7123784 298.868108,17.4227027 299.171351,19.6021622 L293.677297,19.6021622 C293.343243,17.9372432 292.088108,17.1048649 289.908649,17.1048649 C288.818919,17.1048649 287.970811,17.3168108 287.365946,17.7405405 C286.79027,18.1642703 286.503243,18.6940541 286.503243,19.3297297 C286.503243,19.9957297 286.941081,20.5253514 287.82,20.9189189 C288.697297,21.3124865 289.863243,21.6757297 291.316216,22.0086486 C292.889189,22.3718919 294.327568,22.7805405 295.62973,23.2345946 C296.961081,23.6583243 298.02,24.3092432 298.808108,25.187027 C299.594595,26.0346486 299.988649,27.2605946 299.988649,28.8648649 C300.017838,30.2573514 299.654595,31.5134595 298.898919,32.6335135 C298.141622,33.7535676 297.051892,34.6313514 295.62973,35.267027 C294.205946,35.9027027 292.525946,36.2205405 290.58973,36.2205405 Z" id="Shape" fill="#854195"></path>
            <g id="Group" transform="translate(0.000000, 9.729730)" fill="#854195" stroke="#854195" stroke-width="0.513368984">
                <polygon id="Path" points="11.9351189 4.93897297 11.3525351 4.93897297 11.7422595 5.37210811 15.0781622 9.07864865 15.1554649 9.16443243 15.2710216 9.16443243 50.8540541 9.16443243 51.4804865 9.16443243 51.0374595 8.72156757 43.6243784 1.30848649 43.1815135 0.865459459 43.1815135 1.49189189 43.1815135 4.93897297"></polygon>
                <polygon id="Path" points="39.9567568 17.6155135 40.5394054 17.6155135 40.1495676 17.1823784 36.8137297 13.4758378 36.7363784 13.3900541 36.6209189 13.3900541 1.03786216 13.3900541 0.41147027 13.3900541 0.854396757 13.8329189 8.26752973 21.246 8.71044324 21.689027 8.71044324 21.0625946 8.71044324 17.6155135"></polygon>
            </g>
        </g>
    </g>
</svg>