<svg width="3.5em" height="1em" viewBox="0 0 36 5" version="1.1" xmlns="http://www.w3.org/2000/svg" xmlns:xlink="http://www.w3.org/1999/xlink">
  <title>AxiosModule</title>
  <g fill-rule="nonzero" fill="none">
    <path d="M9.29 4.162V1.535h.599l.053.445a.93.93 0 01.35-.371c.155-.092.337-.138.545-.138.325 0 .577.103.758.307.18.205.27.505.27.9v1.484h-.678v-1.42c0-.226-.046-.399-.138-.519-.092-.12-.235-.18-.43-.18a.613.613 0 00-.47.202c-.12.134-.18.32-.18.561v1.356H9.29zm4.208.064c-.328 0-.582-.103-.762-.308-.177-.204-.265-.505-.265-.9V1.535h.673v1.42c0 .225.045.398.137.519.092.12.237.18.435.18a.59.59 0 00.46-.202c.124-.134.186-.321.186-.561V1.535h.678v2.627h-.599l-.053-.445a.919.919 0 01-.355.371c-.151.092-.33.138-.535.138zm1.989-.064l.954-1.314-.954-1.313h.726l.667.932.662-.932h.731l-.958 1.313.958 1.314h-.73l-.663-.932-.667.932h-.726zm4.39 0c-.276 0-.497-.067-.663-.201-.166-.134-.249-.373-.249-.715V2.102h-.45v-.567h.45l.08-.705h.598v.705h.71v.567h-.71V3.25c0 .127.026.215.08.265.056.046.151.069.286.069h.328v.577h-.46zm.836.588L22.037.046h.662L21.37 4.75h-.656z" fill="#003C3C"/>
    <path d="M24.07 4.226a1.27 1.27 0 01-.556-.106.768.768 0 01-.323-.292.77.77 0 01-.106-.397c0-.244.096-.441.286-.593.19-.152.477-.228.858-.228h.668v-.064c0-.18-.051-.312-.154-.397a.578.578 0 00-.381-.127.642.642 0 00-.36.1.413.413 0 00-.191.287h-.662a.934.934 0 01.19-.498c.113-.141.258-.25.435-.323.176-.078.374-.117.593-.117.375 0 .67.094.885.28.215.188.323.453.323.795v1.616h-.577l-.064-.424a.971.971 0 01-.328.35.948.948 0 01-.536.138zm.154-.53c.194 0 .344-.064.45-.19a.913.913 0 00.207-.472h-.577c-.18 0-.31.033-.387.1a.296.296 0 00-.117.239c0 .102.04.182.117.238a.51.51 0 00.307.085zm1.749.466l.953-1.314-.953-1.313h.726l.667.932.662-.932h.731l-.958 1.313.958 1.314h-.73l-.663-.932-.667.932h-.726zm3.584-3.035a.439.439 0 01-.307-.111.372.372 0 01-.117-.281c0-.113.039-.205.117-.276a.439.439 0 01.307-.11c.124 0 .224.036.302.11.081.071.122.163.122.276 0 .113-.04.206-.122.28a.419.419 0 01-.302.112zm-.34 3.035V1.535h.679v2.627h-.678zm2.647.064c-.254 0-.483-.059-.688-.175a1.315 1.315 0 01-.482-.482 1.45 1.45 0 01-.175-.72c0-.272.06-.51.18-.716.12-.208.28-.37.482-.487.205-.117.434-.175.689-.175.25 0 .476.058.678.175.205.116.365.279.482.487.12.205.18.444.18.715 0 .272-.06.513-.18.72a1.264 1.264 0 01-.482.483 1.357 1.357 0 01-.684.175zm0-.588a.63.63 0 00.461-.196c.13-.134.196-.332.196-.594 0-.26-.065-.457-.196-.588a.629.629 0 00-.922 0c-.127.131-.19.327-.19.588 0 .262.063.46.19.594a.63.63 0 00.461.196zm3.038.588c-.233 0-.438-.037-.614-.112a1.083 1.083 0 01-.424-.317.912.912 0 01-.19-.467h.683c.02.103.077.191.169.265.095.071.217.106.366.106.148 0 .256-.03.323-.09a.266.266 0 00.106-.206c0-.113-.05-.19-.149-.228a2.407 2.407 0 00-.413-.122 4.499 4.499 0 01-.344-.09 1.765 1.765 0 01-.323-.132.748.748 0 01-.233-.212.56.56 0 01-.09-.323c0-.234.091-.43.275-.588.187-.16.448-.239.784-.239.31 0 .558.073.742.217a.877.877 0 01.333.599h-.64c-.04-.194-.186-.291-.44-.291a.512.512 0 00-.297.074.222.222 0 00-.1.185c0 .078.05.14.153.186.102.045.238.088.408.127.183.042.351.09.503.143a.82.82 0 01.37.227c.093.1.139.242.139.43a.74.74 0 01-.127.44.879.879 0 01-.382.306 1.433 1.433 0 01-.588.112z" fill="#854195"/>
    <g fill="#854195" stroke="#854195" stroke-width=".32">
        <path d="M2.392 1.711h-.068l.046.051.389.432.009.01h4.238l-.052-.05-.864-.866-.052-.052V1.711zM5.662 3.19h.068l-.046-.05-.389-.433-.009-.01H1.048l.052.052.865.865.051.051V3.19z"/>
    </g>
  </g>
</svg>
