<svg width="1em" height="1em" viewBox="0 0 20 22" version="1.1" xmlns="http://www.w3.org/2000/svg" xmlns:xlink="http://www.w3.org/1999/xlink">
  <title>bootstrapVue</title>
  <g fill-rule="nonzero" fill="none">
    <path fill="#34495E" d="M13.689 2.656l-3.625 6.291-3.636-6.291H.627l9.437 16.335L19.49 2.656z"/>
    <path fill="#563D7C" d="M.431 0h19.128L9.966 16.619z"/>
    <path fill="#41B883" d="M16.002 3.841l-5.997 10.397L3.998 3.841H0l10.005 17.325L20 3.841z"/>
    <path d="M7.516 1.92h3.322c.607 0 1.097.138 1.47.422.372.274.548.696.548 1.264 0 .353-.078.647-.245.892-.166.245-.411.431-.725.568v.02c.422.088.735.284.96.597.216.304.324.696.324 1.157 0 .274-.049.52-.147.754a1.49 1.49 0 01-.45.598c-.207.176-.461.304-.785.402-.313.108-.695.157-1.136.157H7.516V1.92zM8.71 4.783h1.95c.285 0 .53-.088.716-.245.196-.167.284-.402.284-.706 0-.343-.078-.587-.255-.734-.166-.138-.421-.206-.745-.206h-1.95v1.891zm0 2.989h2.117c.363 0 .647-.098.843-.284.196-.187.304-.451.304-.794s-.098-.598-.304-.784c-.206-.186-.48-.275-.843-.275H8.711v2.137z" fill="#FFF"/>
  </g>
</svg>
