<svg width="3.5em" height="1.5em" viewBox="0 0 10 3" xmlns="http://www.w3.org/2000/svg" xmlns:xlink="http://www.w3.org/1999/xlink">
    <title>expressjs</title>
    <path d="M.065 2.258V1.145h1.39V1.08H.065V.065h1.477V0H0v2.323h1.555v-.065H.065zM2.808.651l-.576.758L1.67.651h-.084l.608.807-.667.865h.078l.628-.816.632.816h.081l-.67-.865.611-.807h-.078zm.332 2.245V1.855h.007c.039.152.116.274.23.366a.68.68 0 00.44.138.649.649 0 00.306-.07.65.65 0 00.223-.19.886.886 0 00.137-.28c.031-.106.047-.218.047-.335 0-.126-.017-.242-.049-.348a.833.833 0 00-.142-.277.65.65 0 00-.522-.247.722.722 0 00-.236.037.632.632 0 00-.193.106.716.716 0 00-.241.364H3.14V.651h-.065v2.245h.065zm.677-.599a.624.624 0 01-.491-.21c-.124-.14-.186-.34-.186-.603 0-.109.015-.212.046-.31a.8.8 0 01.132-.256.618.618 0 01.5-.24c.108-.001.203.02.284.064a.577.577 0 01.202.177c.053.075.093.16.12.257a1.133 1.133 0 01.003.6.833.833 0 01-.115.26.562.562 0 01-.495.262zm1.07.026v-.946c0-.092.014-.18.04-.267a.653.653 0 01.12-.23.564.564 0 01.207-.156.627.627 0 01.298-.047V.612a.806.806 0 00-.262.032.636.636 0 00-.194.098.499.499 0 00-.13.145.647.647 0 00-.072.177h-.006V.651h-.065v1.672h.065zm.746-.823h1.4a1.158 1.158 0 00-.035-.332.826.826 0 00-.13-.283A.663.663 0 006.3.612a.673.673 0 00-.508.23.867.867 0 00-.162.274 1.04 1.04 0 00-.062.371c0 .124.014.24.042.347.028.107.072.2.13.28.059.079.134.14.226.183a.748.748 0 00.334.062c.19 0 .351-.053.482-.16a.667.667 0 00.23-.455h-.064c-.029.185-.1.323-.217.415a.682.682 0 01-.437.138c-.12 0-.22-.02-.303-.061a.548.548 0 01-.202-.17.738.738 0 01-.115-.252 1.357 1.357 0 01-.041-.314zm1.334-.065H5.633c.006-.117.028-.222.065-.316A.783.783 0 015.843.88a.605.605 0 01.464-.203c.108 0 .203.02.286.06.082.04.151.095.207.164.055.07.097.15.125.243a.99.99 0 01.042.291zm1.416-.29h.065c0-.186-.054-.322-.163-.406C8.177.654 8.03.612 7.843.612a.776.776 0 00-.264.039.527.527 0 00-.176.1.363.363 0 00-.097.137.393.393 0 00-.03.144c0 .09.017.163.05.218a.321.321 0 00.152.127c.048.021.102.04.163.058.06.017.131.036.211.055l.212.052c.07.018.13.041.184.07.053.03.096.067.13.113.033.045.05.105.05.179a.318.318 0 01-.05.182.407.407 0 01-.129.122.572.572 0 01-.174.068.868.868 0 01-.187.021c-.197 0-.349-.044-.454-.131-.105-.088-.158-.227-.158-.415h-.065c0 .21.057.364.171.462.114.097.283.146.506.146a.988.988 0 00.216-.024.601.601 0 00.196-.08.405.405 0 00.194-.358.361.361 0 00-.048-.195.396.396 0 00-.124-.124.656.656 0 00-.172-.076 10.08 10.08 0 00-.433-.116 1.453 1.453 0 01-.19-.062.323.323 0 01-.135-.102.31.31 0 01-.05-.19c0-.016.004-.043.012-.082a.292.292 0 01.062-.119.416.416 0 01.15-.107.665.665 0 01.277-.047c.08 0 .153.009.22.026a.457.457 0 01.17.083.378.378 0 01.11.145c.027.058.04.13.04.214zm1.506 0h.065C9.954.96 9.9.823 9.792.74 9.683.654 9.536.612 9.349.612a.776.776 0 00-.263.039.527.527 0 00-.176.1.363.363 0 00-.098.137.393.393 0 00-.03.144c0 .09.017.163.05.218a.321.321 0 00.153.127c.047.021.102.04.162.058.061.017.132.036.212.055l.211.052c.07.018.131.041.184.07.053.03.097.067.13.113.034.045.05.105.05.179a.318.318 0 01-.05.182.407.407 0 01-.128.122.573.573 0 01-.174.068.868.868 0 01-.187.021c-.198 0-.349-.044-.454-.131-.105-.088-.158-.227-.158-.415h-.065c0 .21.057.364.17.462.115.097.283.146.507.146a.988.988 0 00.216-.024.602.602 0 00.195-.08.405.405 0 00.194-.358.361.361 0 00-.047-.195.396.396 0 00-.124-.124.656.656 0 00-.172-.076 10.08 10.08 0 00-.433-.116 1.452 1.452 0 01-.19-.062.323.323 0 01-.136-.102.31.31 0 01-.05-.19c0-.016.004-.043.013-.082a.292.292 0 01.062-.119.416.416 0 01.15-.107.665.665 0 01.276-.047c.08 0 .154.009.22.026a.457.457 0 01.17.083.378.378 0 01.111.145c.026.058.04.13.04.214z" fill="#222" fill-rule="nonzero"/>
</svg>
