<?xml version="1.0" encoding="UTF-8"?>
<svg width="300px" height="318px" viewBox="0 0 300 318" version="1.1" xmlns="http://www.w3.org/2000/svg" xmlns:xlink="http://www.w3.org/1999/xlink">
    <!-- Generator: Sketch 53.2 (72643) - https://sketchapp.com -->
    <title>svgexport-20</title>
    <desc>Created with Sketch.</desc>
    <g id="Page-1" stroke="none" stroke-width="1" fill="none" fill-rule="evenodd">
        <g id="svgexport-20">
            <polygon id="Path" fill="#34495E" points="205.340519 39.833415 150.955414 134.198922 96.4233219 39.833415 9.40715336 39.833415 150.955414 284.860363 292.356688 39.833415"></polygon>
            <polygon id="Path" fill="#563D7C" fill-rule="nonzero" points="6.46741793 0 293.385595 0 149.485546 249.289564"></polygon>
            <polygon id="Path" fill="#41B883" points="240.029397 57.6188143 150.073493 213.571779 59.9706026 57.6188143 0 57.6188143 150.073493 317.491426 300 57.6188143"></polygon>
            <path d="M112.738854,28.8094072 L162.567369,28.8094072 C171.680549,28.8094072 179.029887,30.867222 184.615385,35.1298383 C190.200882,39.2454679 192.846644,45.5658991 192.846644,54.0911318 C192.846644,59.3826556 191.67075,63.7922587 189.171975,67.466928 C186.673199,71.1415973 182.99853,73.9343459 178.294953,75.9921607 L178.294953,76.2861342 C184.615385,77.6090152 189.318961,80.5487506 192.699657,85.2523273 C195.933366,89.8089172 197.55022,95.688388 197.55022,102.596766 C197.55022,106.712396 196.815287,110.387065 195.345419,113.914748 C193.875551,117.44243 191.67075,120.382166 188.584027,122.880941 C185.497305,125.526703 181.675649,127.437531 176.825086,128.907398 C172.121509,130.524253 166.389025,131.259187 159.77462,131.259187 L112.738854,131.259187 L112.738854,28.8094072 Z M130.67124,71.7295443 L159.921607,71.7295443 C164.184223,71.7295443 167.858893,70.4066634 170.651641,68.0548751 C173.591377,65.5561 174.914258,62.0284174 174.914258,57.4718275 C174.914258,52.3272905 173.738364,48.6526213 171.092602,46.4478197 C168.593827,44.3900049 164.772171,43.3610975 159.921607,43.3610975 L130.67124,43.3610975 L130.67124,71.7295443 Z M130.67124,116.56051 L162.420382,116.56051 C167.858893,116.56051 172.121509,115.090642 175.061244,112.297893 C178.00098,109.505145 179.617834,105.536502 179.617834,100.391965 C179.617834,95.2474277 178.147967,91.4257717 175.061244,88.633023 C171.974522,85.8402744 167.858893,84.5173934 162.420382,84.5173934 L130.67124,84.5173934 L130.67124,116.56051 Z" id="Shape" fill="#FFFFFF"></path>
        </g>
    </g>
</svg>