<?xml version="1.0" encoding="UTF-8"?>
<svg width="121px" height="175px" viewBox="0 0 121 175" version="1.1" xmlns="http://www.w3.org/2000/svg" xmlns:xlink="http://www.w3.org/1999/xlink">
    <!-- Generator: Sketch 53.2 (72643) - https://sketchapp.com -->
    <title>Group 5</title>
    <desc>Created with Sketch.</desc>
    <defs>
        <linearGradient x1="50%" y1="27.974537%" x2="73.9036735%" y2="100%" id="linearGradient-1">
            <stop stop-color="#153D77" offset="0%"></stop>
            <stop stop-color="#2F70AF" offset="100%"></stop>
        </linearGradient>
    </defs>
    <g id="Page-3" stroke="none" stroke-width="1" fill="none" fill-rule="evenodd">
        <g id="Group-4" transform="translate(0.000000, -1.000000)">
            <g id="Group-2">
                <g id="Group-5" transform="translate(0.000000, 1.000000)">
                    <rect id="Rectangle" fill="url(#linearGradient-1)" x="0" y="0" width="121" height="175" rx="16"></rect>
                    <path d="M19.8458278,27.5 C18.7020852,27.5 18.2437988,27.5884992 17.7705309,27.8416057 C17.3687762,28.0564664 17.0564664,28.3687762 16.8416057,28.7705309 C16.5884992,29.2437988 16.5,29.7020852 16.5,30.8458278 L16.5,152.154172 C16.5,153.297915 16.5884992,153.756201 16.8416057,154.229469 C17.0564664,154.631224 17.3687762,154.943534 17.7705309,155.158394 C18.2437988,155.411501 18.7020852,155.5 19.8458278,155.5 L32.1541722,155.5 C33.2979148,155.5 33.7562012,155.411501 34.2294691,155.158394 C34.6312238,154.943534 34.9435336,154.631224 35.1583943,154.229469 C35.4115008,153.756201 35.5,153.297915 35.5,152.154172 L35.5,30.8458278 C35.5,29.7020852 35.4115008,29.2437988 35.1583943,28.7705309 C34.9435336,28.3687762 34.6312238,28.0564664 34.2294691,27.8416057 C33.7562012,27.5884992 33.2979148,27.5 32.1541722,27.5 L19.8458278,27.5 Z" id="Rectangle" stroke="#FFFFFF" fill="#FFFFFF"></path>
                    <path d="M52.8458278,106.5 C51.7020852,106.5 51.2437988,106.588499 50.7705309,106.841606 C50.3687762,107.056466 50.0564664,107.368776 49.8416057,107.770531 C49.5884992,108.243799 49.5,108.702085 49.5,109.845828 L49.5,152.154172 C49.5,153.297915 49.5884992,153.756201 49.8416057,154.229469 C50.0564664,154.631224 50.3687762,154.943534 50.7705309,155.158394 C51.2437988,155.411501 51.7020852,155.5 52.8458278,155.5 L66.1541722,155.5 C67.2979148,155.5 67.7562012,155.411501 68.2294691,155.158394 C68.6312238,154.943534 68.9435336,154.631224 69.1583943,154.229469 C69.4115008,153.756201 69.5,153.297915 69.5,152.154172 L69.5,109.845828 C69.5,108.702085 69.4115008,108.243799 69.1583943,107.770531 C68.9435336,107.368776 68.6312238,107.056466 68.2294691,106.841606 C67.7562012,106.588499 67.2979148,106.5 66.1541722,106.5 L52.8458278,106.5 Z" id="Rectangle" stroke="#FFFFFF" fill="#FFFFFF"></path>
                    <path d="M86.8458278,72.5 C85.7020852,72.5 85.2437988,72.5884992 84.7705309,72.8416057 C84.3687762,73.0564664 84.0564664,73.3687762 83.8416057,73.7705309 C83.5884992,74.2437988 83.5,74.7020852 83.5,75.8458278 L83.5,152.154172 C83.5,153.297915 83.5884992,153.756201 83.8416057,154.229469 C84.0564664,154.631224 84.3687762,154.943534 84.7705309,155.158394 C85.2437988,155.411501 85.7020852,155.5 86.8458278,155.5 L99.1541722,155.5 C100.297915,155.5 100.756201,155.411501 101.229469,155.158394 C101.631224,154.943534 101.943534,154.631224 102.158394,154.229469 C102.411501,153.756201 102.5,153.297915 102.5,152.154172 L102.5,75.8458278 C102.5,74.7020852 102.411501,74.2437988 102.158394,73.7705309 C101.943534,73.3687762 101.631224,73.0564664 101.229469,72.8416057 C100.756201,72.5884992 100.297915,72.5 99.1541722,72.5 L86.8458278,72.5 Z" id="Rectangle" stroke="#FFFFFF" fill="#FFFFFF"></path>
                </g>
            </g>
        </g>
    </g>
</svg>