<?xml version="1.0" encoding="UTF-8"?>
<svg width="8px" height="8px" viewBox="0 0 8 8" version="1.1" xmlns="http://www.w3.org/2000/svg" xmlns:xlink="http://www.w3.org/1999/xlink">
    <!-- Generator: Sketch 53.2 (72643) - https://sketchapp.com -->
    <title>svgexport-7</title>
    <desc>Created with Sketch.</desc>
    <defs>
        <linearGradient x1="0%" y1="0%" x2="100%" y2="100%" id="linearGradient-1">
            <stop stop-color="#83A8CD" offset="0%"></stop>
            <stop stop-color="#125CA4" offset="26.0228126%"></stop>
            <stop stop-color="#125CA4" offset="79.2044975%"></stop>
            <stop stop-color="#83A8CD" offset="100%"></stop>
        </linearGradient>
    </defs>
    <g id="Page-3" stroke="none" stroke-width="1" fill="none" fill-rule="evenodd">
        <g id="svgexport-7" fill="url(#linearGradient-1)" fill-rule="nonzero">
            <path d="M3,0.5 L3,2 L0.5,2 L0.5,0.5 L3,0.5 Z M0.5,0 C0.223857625,-1.69088438e-17 3.38176876e-17,0.223857625 0,0.5 L0,2 C3.38176876e-17,2.27614237 0.223857625,2.5 0.5,2.5 L3,2.5 C3.27614237,2.5 3.5,2.27614237 3.5,2 L3.5,0.5 C3.5,0.223857625 3.27614237,1.69088438e-17 3,0 L0.5,0 Z M7.5,6 L7.5,7.5 L5,7.5 L5,6 L7.5,6 Z M5,5.5 C4.72385763,5.5 4.5,5.72385763 4.5,6 L4.5,7.5 C4.5,7.77614237 4.72385763,8 5,8 L7.5,8 C7.77614237,8 8,7.77614237 8,7.5 L8,6 C8,5.72385763 7.77614237,5.5 7.5,5.5 L5,5.5 Z M3,4 L3,7.5 L0.5,7.5 L0.5,4 L3,4 Z M0.5,3.5 L3,3.5 C3.27614237,3.5 3.5,3.72385763 3.5,4 L3.5,7.5 C3.5,7.77614237 3.27614237,8 3,8 L0.5,8 C0.223857625,8 3.38176876e-17,7.77614237 0,7.5 L0,4 C3.38176876e-17,3.72385763 0.223857625,3.5 0.5,3.5 Z M5,0 L7.5,0 C7.77614237,0 8,0.223857625 8,0.5 L8,4 C8,4.27614237 7.77614237,4.5 7.5,4.5 L5,4.5 C4.72385763,4.5 4.5,4.27614237 4.5,4 L4.5,0.5 C4.5,0.223857625 4.72385763,0 5,0 Z" id="Shape"></path>
        </g>
    </g>
</svg>