<?xml version="1.0" encoding="UTF-8"?>
<svg width="6px" height="7px" viewBox="0 0 6 7" version="1.1" xmlns="http://www.w3.org/2000/svg" xmlns:xlink="http://www.w3.org/1999/xlink">
    <!-- Generator: Sketch 53.2 (72643) - https://sketchapp.com -->
    <title>svgexport-2</title>
    <desc>Created with Sketch.</desc>
    <g id="Page-3" stroke="none" stroke-width="1" fill="none" fill-rule="evenodd">
        <g id="svgexport-2" fill-rule="nonzero">
            <path d="M0,1.20009 C0,0.537273136 1.34318284,0 3,0 C4.65681716,0 6,0.537273136 6,1.20009 L6,1.79991 C6,2.46272686 4.65681716,3 3,3 C1.34318284,3 0,2.46272686 0,1.79991 L0,1.20009 Z" id="Path" fill="#153D77"></path>
            <path d="M0,3 L0,4.05894811 C0,4.57818567 1.34318284,5 3,5 C4.65681716,5 6,4.57853865 6,4.05859513 L6,3 C5.80650967,3.11295447 5.58107095,3.20472997 5.3439328,3.27885634 C4.71441428,3.47652665 3.88510574,3.58806918 3,3.58806918 C2.11489426,3.58806918 1.28558572,3.47617367 0.655617219,3.27885634 C0.422821156,3.20820259 0.202495854,3.11449073 0,3 L0,3 Z" id="Path" fill="#2F70AF"></path>
            <path d="M6,5.00046157 C5.80650967,5.14770367 5.58107095,5.26725133 5.3439328,5.36464343 C4.7139643,5.62312486 3.88510574,5.76898223 3,5.76898223 C2.11489426,5.76898223 1.28558572,5.62312486 0.655617219,5.36464343 C0.422825295,5.27224465 0.2025011,5.14970399 0,5 L0,5.76898223 C-4.99575382e-16,6.44888068 1.34318284,7 3,7 C4.65681716,7 6,6.44888068 6,5.76898223 L6,5.00046157 Z" id="Path" fill="#153D77"></path>
        </g>
    </g>
</svg>