<?xml version="1.0" encoding="UTF-8"?>
<svg width="8px" height="8px" viewBox="0 0 8 8" version="1.1" xmlns="http://www.w3.org/2000/svg" xmlns:xlink="http://www.w3.org/1999/xlink">
    <!-- Generator: Sketch 53.2 (72643) - https://sketchapp.com -->
    <title>svgexport-6 copy</title>
    <desc>Created with Sketch.</desc>
    <g id="Page-3" stroke="none" stroke-width="1" fill="none" fill-rule="evenodd">
        <g id="svgexport-6-copy" fill="#144989" fill-rule="nonzero">
            <path d="M6.5,3.4 C6.5,3.1790861 6.38807119,3 6.25,3 L3.75,3 C3.61192881,3 3.5,3.1790861 3.5,3.4 C3.5,3.6209139 3.61192881,3.8 3.75,3.8 L6.25,3.8 C6.38807119,3.8 6.5,3.6209139 6.5,3.4 Z M6.5,4.9 C6.5,4.6790861 6.38807119,4.5 6.25,4.5 L3.75,4.5 C3.61192881,4.5 3.5,4.6790861 3.5,4.9 C3.5,5.1209139 3.61192881,5.3 3.75,5.3 L6.25,5.3 C6.38807119,5.3 6.5,5.1209139 6.5,4.9 Z M6.25,6 C6.38807119,6 6.5,6.1790861 6.5,6.4 C6.5,6.6209139 6.38807119,6.8 6.25,6.8 L3.75,6.8 C3.61192881,6.8 3.5,6.6209139 3.5,6.4 C3.5,6.1790861 3.61192881,6 3.75,6 L6.25,6 Z" id="Shape"></path>
            <path d="M7,0 C7.55228475,3.38176876e-17 8,0.44771525 8,1 L8,7 C8,7.55228475 7.55228475,8 7,8 L1,8 C0.44771525,8 6.76353751e-17,7.55228475 0,7 L0,1 C-6.76353751e-17,0.44771525 0.44771525,1.01453063e-16 1,0 L7,0 Z M1,0.5 C0.723857625,0.5 0.5,0.723857625 0.5,1 L0.5,1.5 L7.5,1.5 L7.5,1 C7.5,0.723857625 7.27614237,0.5 7,0.5 L1,0.5 Z M0.5,2 L0.5,7 C0.5,7.27614237 0.723857625,7.5 1,7.5 L2,7.5 L2,2 L0.5,2 Z M2.5,2 L2.5,7.5 L7,7.5 C7.27614237,7.5 7.5,7.27614237 7.5,7 L7.5,2 L2.5,2 Z" id="Shape" fill-opacity="0.650185752"></path>
        </g>
    </g>
</svg>